# xmcd
#
# Track frame offsets:
# 150
# 22976
# 40240
# 57313
# 82887
#
# Disc length: 1407 seconds
#
# Revision: 0
# Processed by: cddbd v1.4PL0 Copyright (c) Steve Scherf et al.
# Submitted via: Audion 2.5.0 (http://www.panic.com/audion/)
#
DISCID=31057d05
DTITLE=Torch - In Deinen Armen
DYEAR=1900
DGENRE=
TTITLE0=In Deinen Armen (Vocal)
TTITLE1=Morgen (Vocal)
TTITLE2=Blauer Samt (Vocal)
TTITLE3=In Deinen Armen (Live)
TTITLE4=In Deinen Armen (Instrumental)
EXTD=
EXTT0=
EXTT1=
EXTT2=
EXTT3=
EXTT4=
PLAYORDER=
